<svg id="Layer_1" data-name="Layer 1" xmlns="http://www.w3.org/2000/svg" xmlns:xlink="http://www.w3.org/1999/xlink" viewBox="0 0 100 29"><defs><style>.cls-1,.cls-2{fill:none;}.cls-2{clip-rule:evenodd;}.cls-3{clip-path:url(#clip-path);}.cls-4{fill:#e46b37;}.cls-5{clip-path:url(#clip-path-2);}.cls-6{fill:#fe7000;}.cls-7{clip-path:url(#clip-path-3);}.cls-8{clip-path:url(#clip-path-4);}.cls-9{clip-path:url(#clip-path-5);}.cls-10{clip-path:url(#clip-path-6);}.cls-11{fill:#595a59;}.cls-12{clip-path:url(#clip-path-7);}.cls-13{clip-path:url(#clip-path-8);}.cls-14{clip-path:url(#clip-path-9);}.cls-15{clip-path:url(#clip-path-10);}.cls-16{isolation:isolate;}.cls-17{clip-path:url(#clip-path-12);}</style><clipPath id="clip-path"><line class="cls-1" x1="1.62" y1="27.24" x2="1.6" y2="27.24"/></clipPath><clipPath id="clip-path-2"><path class="cls-2" d="M25,6.86l1.7-.3-5.12.22L23.69,3.9,21.13,6.37l-.62-3.64,0,3.67L17.67,4.48l2.48,2.37-4.94.68h1.68L15.8,27.77l5.78-.5,0-3.63,2-.17L24.21,27l5.72-.5ZM27.2,26.05a4.72,4.72,0,0,1-1.34-.29c-.22,0-.47,0-.57-.12l-.06-.34L24.86,25c-.14-.23-.07-.47-.21-.72-.28-.49-.69-1-1-1.47a9.71,9.71,0,0,0-.54-1.12c-.14-.17-.4-.3-.54-.47-.32-.39-.69-1.39-1.29-1.42a13.83,13.83,0,0,0-1.1,2.64v.69c-.05.19-.21.4-.26.62a4.75,4.75,0,0,0-.07,1.12c0,.08-.05.19,0,.38s.09.61-.08.7a3.79,3.79,0,0,0-.42.18,7.84,7.84,0,0,0-.61.65c-.46,0-.82-.1-.83-.18s-.11-.33.1-.47.31-.33.28-.44.15-.26.19-.41,0-.38.09-.68c0-.48.05-1,.08-1.46s.34-1,.43-1.48a26.23,26.23,0,0,1,.18-3.12,3.76,3.76,0,0,0,.12-.54c.05-.14.2-.38.23-.52s-.08-.19,0-.34.26-.42.35-.64.1-.61.25-.93.34-.59.46-.87.37-.91.41-1.06c.09-.34-.09-.74,0-1.11a4.82,4.82,0,0,0-.13-2.18A3.12,3.12,0,0,1,21,9h0V8.88a1,1,0,0,1,0-.15h0v0h0a.39.39,0,0,1-.08-.1l0-.07v0l0,0s0,0,0,0a.16.16,0,0,1,0-.07v0a.17.17,0,0,0,0-.07.17.17,0,0,1,0-.07.05.05,0,0,1,.06,0h0l.05,0v0s0,0,0-.05l0,0a.05.05,0,0,1,0,0h.11l0,0,0,0v0l0,0,0,0h0l.07,0,.07,0h.05a.09.09,0,0,1,.07,0,0,0,0,0,1,.06,0,.08.08,0,0,1,0,0,.28.28,0,0,0,0,.09v.13s0,.08,0,.12v0s0,0,0,0l.06,0h0s0,0,0,0v.11l0,.06,0,0-.14.08h0a.15.15,0,0,1,0,.06h0V9a.25.25,0,0,1,0,.08c0,.33.14.7.2,1s-.08.72,0,1,.18.64.27.94,0,.43,0,.65l.17.29c.12.26,0,.35.38.37,0,0-.2-.62-.1-.86.21-.5-.11-.68.43-.89a.9.9,0,0,1,1.13.2.58.58,0,0,1,.12.53,1.74,1.74,0,0,1-.12.73c-.11.16-.18.29-.28.45s-.26.2-.33.36c-.26.66.46,1.05.31,1.63a2.81,2.81,0,0,1-.22.51l-.33.29c-.16.3-.09.61-.2.93-.05.15-.23.44-.13.7,0,.11.18.2.23.3s.05.3.07.45c.15.34.47.67.62,1a18.81,18.81,0,0,0,.67,1.88c.18.32.57.57.78.87s.26.74.49,1c.38.5.53,1.23,1.08,1.55C28,25.71,27.31,26,27.2,26.05Z"/></clipPath><clipPath id="clip-path-3"><path class="cls-2" d="M41.62,11.46l-5.19.45-.13-1.48A2.66,2.66,0,0,0,36,9.13a.75.75,0,0,0-.69-.23.88.88,0,0,0-.73.45,2.06,2.06,0,0,0-.15,1.18A3.08,3.08,0,0,0,34.83,12a4.15,4.15,0,0,0,1.69,1.08c2.61,1.16,4.27,2.15,5,3a7.36,7.36,0,0,1,1.34,4.18,7.07,7.07,0,0,1-.26,3.19,4.08,4.08,0,0,1-1.93,1.88,8.59,8.59,0,0,1-3.53,1,8.65,8.65,0,0,1-3.9-.45A4.05,4.05,0,0,1,31,24a9.6,9.6,0,0,1-.8-3.43l-.11-1.31,5.19-.45.21,2.44a3,3,0,0,0,.35,1.42.88.88,0,0,0,.8.26,1,1,0,0,0,.8-.48,2.18,2.18,0,0,0,.16-1.24A3.55,3.55,0,0,0,36.87,19,16.09,16.09,0,0,0,34.1,17.4a26.15,26.15,0,0,1-2.93-1.63,4.47,4.47,0,0,1-1.26-1.51,6.68,6.68,0,0,1-.68-2.58,6.85,6.85,0,0,1,.34-3.41,4.23,4.23,0,0,1,1.89-1.85,8.65,8.65,0,0,1,3.35-.89,9.37,9.37,0,0,1,3.77.33,3.87,3.87,0,0,1,2.18,1.47,8.29,8.29,0,0,1,.79,3.34l.07.79"/></clipPath><clipPath id="clip-path-4"><polyline class="cls-2" points="48.49 4.76 50.24 24.77 44.65 25.25 42.9 5.25 48.49 4.76"/></clipPath><clipPath id="clip-path-5"><path class="cls-2" d="M64.63,11.48,59,12l-.2-2.26a6,6,0,0,0-.34-1.88.8.8,0,0,0-.84-.3c-.46,0-.74.22-.84.53a6.68,6.68,0,0,0,0,2l.72,8.13a5.86,5.86,0,0,0,.35,1.88.82.82,0,0,0,.89.37.79.79,0,0,0,.78-.51,6.46,6.46,0,0,0,0-2.11l-.22-2.6,5.64-.5L65,16.18A14.41,14.41,0,0,1,65,20.63,4.65,4.65,0,0,1,63,23.09a7.79,7.79,0,0,1-3.93,1.33A9,9,0,0,1,55,23.94a4.14,4.14,0,0,1-2.34-2.1,14.08,14.08,0,0,1-.91-4.36l-.51-5.85a22.48,22.48,0,0,1-.12-3.26,4.33,4.33,0,0,1,.77-2.16,5.46,5.46,0,0,1,2.08-1.77,9.79,9.79,0,0,1,7.4-.33,4.43,4.43,0,0,1,2.33,2,12.68,12.68,0,0,1,.87,4.08l.11,1.26"/></clipPath><clipPath id="clip-path-6"><polyline class="cls-2" points="70.39 2.81 79.65 2 80 6.02 76.21 6.35 76.54 10.16 79.92 9.87 80.25 13.69 76.88 13.98 77.62 22.42 72.15 22.9 70.39 2.81"/></clipPath><clipPath id="clip-path-7"><polyline class="cls-2" points="86.44 1.41 88.2 21.5 82.73 21.98 80.97 1.88 86.44 1.41"/></clipPath><clipPath id="clip-path-8"><polyline class="cls-2" points="99.64 0.25 100 4.27 96.75 4.56 98.16 20.63 92.69 21.11 91.28 5.04 88.05 5.32 87.7 1.3 99.64 0.25"/></clipPath><clipPath id="clip-path-9"><path class="cls-2" d="M0,9,5.58,8.5a19.08,19.08,0,0,1,4.33,0,4,4,0,0,1,2.33,1.36,6.56,6.56,0,0,1,1.17,3.69,3.89,3.89,0,0,1-.38,2.5,4.28,4.28,0,0,1-2.24,1.26,4.22,4.22,0,0,1,2.75,1.13,4.93,4.93,0,0,1,1,2.83l.16,1.86a6.83,6.83,0,0,1-.24,3.05,2.59,2.59,0,0,1-1.47,1.47,17.71,17.71,0,0,1-4.43.75L1.75,29Zm5.89,2.94.39,4.45.85-.09c.55-.05.89-.2,1-.47a5.92,5.92,0,0,0,0-2.18,3.2,3.2,0,0,0-.3-1.3.87.87,0,0,0-.53-.43A7.23,7.23,0,0,0,5.89,11.93Zm.66,7.56.5,5.6a3.81,3.81,0,0,0,1.76-.5A2.31,2.31,0,0,0,9,23l-.17-1.87c-.07-.86-.22-1.37-.43-1.53A4.25,4.25,0,0,0,6.55,19.49Z"/></clipPath><clipPath id="clip-path-10"><rect class="cls-1" y="8" width="70" height="21"/></clipPath><clipPath id="clip-path-12"><polyline class="cls-2" points="66.28 14.61 69.96 14.29 69.68 11.04 66 11.36 66.28 14.61"/></clipPath></defs><title>orange-grey</title><g class="cls-3"><rect class="cls-4" x="-3.4" y="22.24" width="10.01" height="10"/></g><g class="cls-5"><rect class="cls-6" x="10.21" y="-2.27" width="24.72" height="35.05"/></g><g class="cls-7"><rect class="cls-6" x="24.18" y="0.48" width="23.74" height="30.9"/></g><g class="cls-8"><rect class="cls-6" x="37.9" y="-0.24" width="17.35" height="30.5"/></g><g class="cls-9"><rect class="cls-6" x="46.05" y="-1.47" width="24.11" height="30.94"/></g><g class="cls-10"><rect class="cls-11" x="65.39" y="-3" width="19.86" height="30.9"/></g><g class="cls-12"><rect class="cls-11" x="75.97" y="-3.59" width="17.23" height="30.57"/></g><g class="cls-13"><rect class="cls-11" x="82.7" y="-4.75" width="22.3" height="30.85"/></g><g id="B"><g class="cls-14"><g class="cls-15"><rect class="cls-6" x="-5" y="3.38" width="24.7" height="30.62"/></g></g></g><g id="Dash"><g class="cls-16"><g class="cls-15"><g class="cls-17"><g class="cls-15"><rect class="cls-11" x="61" y="6.04" width="13.96" height="13.57"/></g></g></g></g></g></svg>